<svg xmlns="http://www.w3.org/2000/svg" xmlns:xlink="http://www.w3.org/1999/xlink" width="64" zoomAndPan="magnify" viewBox="0 0 48 48" height="64" preserveAspectRatio="xMidYMid meet" version="1.2"><defs><clipPath id="4b8e89497b"><path d="M 0.488281 0 L 47.507812 0 L 47.507812 47.019531 L 0.488281 47.019531 Z M 0.488281 0 "/></clipPath><clipPath id="dd33a4a16d"><path d="M 1.503906 1.480469 L 45.558594 1.480469 L 45.558594 45.539062 L 1.503906 45.539062 Z M 1.503906 1.480469 "/></clipPath><clipPath id="d19ca7e762"><path d="M 23.53125 1.480469 C 11.367188 1.480469 1.503906 11.34375 1.503906 23.511719 C 1.503906 35.675781 11.367188 45.539062 23.53125 45.539062 C 35.699219 45.539062 45.558594 35.675781 45.558594 23.511719 C 45.558594 11.34375 35.699219 1.480469 23.53125 1.480469 Z M 23.53125 1.480469 "/></clipPath></defs><g id="89e838f953"><g clip-rule="nonzero" clip-path="url(#4b8e89497b)"><path style=" stroke:none;fill-rule:nonzero;fill:#ffffff;fill-opacity:1;" d="M 0.488281 0 L 47.511719 0 L 47.511719 47.019531 L 0.488281 47.019531 Z M 0.488281 0 "/><path style=" stroke:none;fill-rule:nonzero;fill:#ffffff;fill-opacity:1;" d="M 0.488281 0 L 47.511719 0 L 47.511719 47.019531 L 0.488281 47.019531 Z M 0.488281 0 "/></g><g clip-rule="nonzero" clip-path="url(#dd33a4a16d)"><g clip-rule="nonzero" clip-path="url(#d19ca7e762)"><path style=" stroke:none;fill-rule:nonzero;fill:#b0d0d3;fill-opacity:1;" d="M 1.503906 1.480469 L 45.558594 1.480469 L 45.558594 45.539062 L 1.503906 45.539062 Z M 1.503906 1.480469 "/></g></g><g style="fill:#201e1f;fill-opacity:1;"><g transform="translate(14.275046, 34.916701)"><path style="stroke:none" d="M 2.21875 0 L 2.21875 -24.703125 L 7.34375 -24.703125 L 7.34375 0 Z M 2.21875 0 "/></g></g><g style="fill:#201e1f;fill-opacity:1;"><g transform="translate(22.005639, 34.916701)"><path style="stroke:none" d="M 2.21875 -24.703125 L 7.09375 -24.703125 L 19.375 -8.71875 L 19.375 -24.703125 L 24.171875 -24.703125 L 24.171875 0 L 19.65625 0 L 7.0625 -16.515625 L 7.0625 0 L 2.21875 0 Z M 2.21875 -24.703125 "/></g></g></g></svg>