<svg xmlns="http://www.w3.org/2000/svg" xmlns:xlink="http://www.w3.org/1999/xlink" width="300" zoomAndPan="magnify" viewBox="0 0 224.87999 112.499997" height="150" preserveAspectRatio="xMidYMid meet" version="1.2"><defs><clipPath id="4696f2086c"><path d="M 0.4375 0 L 224.324219 0 L 224.324219 112.003906 L 0.4375 112.003906 Z M 0.4375 0 "/></clipPath><clipPath id="ae83d5bfb5"><path d="M 22.511719 3.363281 L 127.785156 3.363281 L 127.785156 108.636719 L 22.511719 108.636719 Z M 22.511719 3.363281 "/></clipPath><clipPath id="23cf563bf3"><path d="M 75.148438 3.363281 C 46.078125 3.363281 22.511719 26.929688 22.511719 56 C 22.511719 85.070312 46.078125 108.636719 75.148438 108.636719 C 104.21875 108.636719 127.785156 85.070312 127.785156 56 C 127.785156 26.929688 104.21875 3.363281 75.148438 3.363281 Z M 75.148438 3.363281 "/></clipPath></defs><g id="3c015c6158"><g clip-rule="nonzero" clip-path="url(#4696f2086c)"><path style=" stroke:none;fill-rule:nonzero;fill:#ffffff;fill-opacity:1;" d="M 0.4375 0 L 224.441406 0 L 224.441406 112.003906 L 0.4375 112.003906 Z M 0.4375 0 "/><path style=" stroke:none;fill-rule:nonzero;fill:#ffffff;fill-opacity:1;" d="M 0.4375 0 L 224.441406 0 L 224.441406 112.003906 L 0.4375 112.003906 Z M 0.4375 0 "/></g><g clip-rule="nonzero" clip-path="url(#ae83d5bfb5)"><g clip-rule="nonzero" clip-path="url(#23cf563bf3)"><path style=" stroke:none;fill-rule:nonzero;fill:#b0d0d3;fill-opacity:1;" d="M 22.511719 3.363281 L 127.785156 3.363281 L 127.785156 108.636719 L 22.511719 108.636719 Z M 22.511719 3.363281 "/></g></g><g style="fill:#201e1f;fill-opacity:1;"><g transform="translate(51.736432, 84.332236)"><path style="stroke:none" d="M 5.09375 0 L 5.09375 -56.53125 L 16.796875 -56.53125 L 16.796875 0 Z M 5.09375 0 "/></g></g><g style="fill:#201e1f;fill-opacity:1;"><g transform="translate(69.425377, 84.332236)"><path style="stroke:none" d="M 5.09375 -56.53125 L 16.234375 -56.53125 L 44.34375 -19.953125 L 44.34375 -56.53125 L 55.328125 -56.53125 L 55.328125 0 L 44.984375 0 L 16.15625 -37.796875 L 16.15625 0 L 5.09375 0 Z M 5.09375 -56.53125 "/></g></g><g style="fill:#201e1f;fill-opacity:1;"><g transform="translate(125.643766, 84.332236)"><path style="stroke:none" d="M 33.359375 -10.015625 C 36.316406 -10.015625 39.085938 -10.632812 41.671875 -11.875 C 44.253906 -13.113281 46.546875 -14.890625 48.546875 -17.203125 L 56.21875 -9.609375 C 53.519531 -6.429688 50.082031 -3.898438 45.90625 -2.015625 C 41.738281 -0.128906 37.445312 0.8125 33.03125 0.8125 C 28.78125 0.8125 24.8125 0.0546875 21.125 -1.453125 C 17.4375 -2.960938 14.242188 -5.007812 11.546875 -7.59375 C 8.859375 -10.175781 6.742188 -13.242188 5.203125 -16.796875 C 3.671875 -20.347656 2.90625 -24.171875 2.90625 -28.265625 C 2.90625 -32.359375 3.6875 -36.191406 5.25 -39.765625 C 6.8125 -43.347656 8.9375 -46.429688 11.625 -49.015625 C 14.320312 -51.609375 17.515625 -53.65625 21.203125 -55.15625 C 24.890625 -56.664062 28.832031 -57.421875 33.03125 -57.421875 C 37.550781 -57.421875 41.9375 -56.460938 46.1875 -54.546875 C 50.445312 -52.640625 53.894531 -50.070312 56.53125 -46.84375 L 48.625 -39.015625 C 46.625 -41.484375 44.28125 -43.378906 41.59375 -44.703125 C 38.90625 -46.023438 36.050781 -46.6875 33.03125 -46.6875 C 30.5 -46.6875 28.113281 -46.210938 25.875 -45.265625 C 23.644531 -44.328125 21.722656 -43.035156 20.109375 -41.390625 C 18.492188 -39.742188 17.226562 -37.800781 16.3125 -35.5625 C 15.394531 -33.332031 14.9375 -30.898438 14.9375 -28.265625 C 14.9375 -25.679688 15.40625 -23.269531 16.34375 -21.03125 C 17.289062 -18.800781 18.582031 -16.878906 20.21875 -15.265625 C 21.863281 -13.648438 23.804688 -12.367188 26.046875 -11.421875 C 28.285156 -10.484375 30.722656 -10.015625 33.359375 -10.015625 Z M 33.359375 -10.015625 "/></g></g><g style="fill:#201e1f;fill-opacity:1;"><g transform="translate(179.357005, 84.332236)"><path style="stroke:none" d="M 9.6875 -12.359375 C 11.519531 -12.359375 13.082031 -11.710938 14.375 -10.421875 C 15.664062 -9.128906 16.3125 -7.566406 16.3125 -5.734375 C 16.3125 -3.953125 15.664062 -2.414062 14.375 -1.125 C 13.082031 0.164062 11.519531 0.8125 9.6875 0.8125 C 7.914062 0.8125 6.382812 0.164062 5.09375 -1.125 C 3.800781 -2.414062 3.15625 -3.953125 3.15625 -5.734375 C 3.15625 -7.566406 3.800781 -9.128906 5.09375 -10.421875 C 6.382812 -11.710938 7.914062 -12.359375 9.6875 -12.359375 Z M 9.6875 -12.359375 "/></g></g><g style="fill:#201e1f;fill-opacity:1;"><g transform="translate(172.673172, 98.711291)"><path style="stroke:none" d="M 0.03125 -1 L 0.765625 -1.921875 C 1.128906 -1.609375 1.476562 -1.378906 1.8125 -1.234375 C 2.15625 -1.085938 2.515625 -1.015625 2.890625 -1.015625 C 3.273438 -1.015625 3.582031 -1.082031 3.8125 -1.21875 C 4.050781 -1.363281 4.171875 -1.554688 4.171875 -1.796875 C 4.171875 -2.015625 4.09375 -2.179688 3.9375 -2.296875 C 3.78125 -2.421875 3.515625 -2.507812 3.140625 -2.5625 L 1.890625 -2.78125 C 1.359375 -2.875 0.953125 -3.0625 0.671875 -3.34375 C 0.398438 -3.632812 0.265625 -4.003906 0.265625 -4.453125 C 0.265625 -5.046875 0.484375 -5.507812 0.921875 -5.84375 C 1.367188 -6.1875 1.972656 -6.359375 2.734375 -6.359375 C 3.179688 -6.359375 3.632812 -6.28125 4.09375 -6.125 C 4.5625 -5.96875 4.96875 -5.753906 5.3125 -5.484375 L 4.625 -4.515625 C 4.289062 -4.765625 3.960938 -4.953125 3.640625 -5.078125 C 3.316406 -5.203125 2.984375 -5.265625 2.640625 -5.265625 C 2.296875 -5.265625 2.019531 -5.195312 1.8125 -5.0625 C 1.601562 -4.9375 1.5 -4.769531 1.5 -4.5625 C 1.5 -4.363281 1.566406 -4.210938 1.703125 -4.109375 C 1.835938 -4.003906 2.066406 -3.925781 2.390625 -3.875 L 3.578125 -3.6875 C 4.191406 -3.582031 4.65625 -3.378906 4.96875 -3.078125 C 5.28125 -2.785156 5.4375 -2.398438 5.4375 -1.921875 C 5.4375 -1.304688 5.195312 -0.816406 4.71875 -0.453125 C 4.238281 -0.0859375 3.597656 0.09375 2.796875 0.09375 C 2.296875 0.09375 1.800781 0 1.3125 -0.1875 C 0.832031 -0.382812 0.40625 -0.65625 0.03125 -1 Z M 0.03125 -1 "/></g></g><g style="fill:#201e1f;fill-opacity:1;"><g transform="translate(177.86117, 98.711291)"><path style="stroke:none" d="M 0.15625 -5.125 L 0.15625 -6.265625 L 5.671875 -6.265625 L 5.671875 -5.125 L 3.578125 -5.125 L 3.578125 0 L 2.28125 0 L 2.28125 -5.125 Z M 0.15625 -5.125 "/></g></g><g style="fill:#201e1f;fill-opacity:1;"><g transform="translate(183.228364, 98.711291)"><path style="stroke:none" d="M -0.03125 0 L 2.546875 -6.265625 L 4.046875 -6.265625 L 6.59375 0 L 5.1875 0 L 4.546875 -1.640625 L 1.953125 -1.640625 L 1.3125 0 Z M 2.359375 -2.6875 L 4.15625 -2.6875 L 3.265625 -5 Z M 2.359375 -2.6875 "/></g></g><g style="fill:#201e1f;fill-opacity:1;"><g transform="translate(189.312377, 98.711291)"><path style="stroke:none" d="M 2.5 0 L 2.5 -2.40625 L -0.046875 -6.265625 L 1.4375 -6.265625 L 3.203125 -3.546875 L 4.953125 -6.265625 L 6.375 -6.265625 L 3.8125 -2.390625 L 3.8125 0 Z M 2.5 0 "/></g></g></g></svg>